<svg xmlns="http://www.w3.org/2000/svg" width="24" height="24" viewBox="0 0 24 24" fill="none" stroke="currentColor" stroke-width="2" stroke-linecap="round" stroke-linejoin="round">
  <path d="M12 2C8.5 2 6 4.69 6 8c0 1.06.26 2.06.7 2.94L4.5 14.5c-.3.6.1 1.3.8 1.3h.7c-.3.8-.5 1.6-.5 2.2 0 .8.3 1.5.7 2l-.7 1.5c-.2.4.1.8.5.8h2c.3 0 .5-.1.7-.3.5.2 1.1.3 1.7.4.3.4.8.6 1.6.6s1.3-.2 1.6-.6c.6-.1 1.2-.2 1.7-.4.2.2.4.3.7.3h2c.4 0 .7-.4.5-.8l-.7-1.5c.4-.5.7-1.2.7-2 0-.6-.2-1.4-.5-2.2h.7c.7 0 1.1-.7.8-1.3l-2.2-3.56A7.5 7.5 0 0 0 18 8c0-3.31-2.5-6-6-6z"/>
  <circle cx="9.5" cy="8" r="1"/>
  <circle cx="14.5" cy="8" r="1"/>
</svg>
