<svg xmlns="http://www.w3.org/2000/svg" class="icon" style="width:1em;height:1em;vertical-align:middle;fill:currentColor;overflow:hidden" viewBox="0 0 1024 1024"><path fill="#bfbfbf" d="M521.024 82.112c-244.224 0-442.176 197.952-442.176 442.176S276.8 966.464 521.024 966.464 963.2 768.512 963.2 524.288 765.248 82.112 521.024 82.112m206.528 578.816c-18.048 51.584-68.096 100.544-127.36 123.264-31.424 12.352-94.912 16.512-129.408 8.256-155.264-36.16-234.624-232.576-151.616-374.4 27.328-46.912 101.568-110.336 128.896-110.336 6.208 0 15.488 4.672 20.096 9.792 16.512 18.048 8.256 31.488-36.096 62.912-62.912 44.864-90.24 95.424-90.24 166.592 0 57.728 21.632 107.264 64.96 146.944 35.584 32.512 63.936 43.84 113.472 44.352 69.12 0 118.592-29.376 147.456-87.68 15.488-31.424 16-35.584 13.952-79.424-2.048-39.68-4.096-49.472-17.536-70.656-14.464-23.232-58.752-55.168-66.496-47.936-1.536 2.048 1.536 21.632 7.744 43.84 5.696 22.208 10.304 44.864 10.304 50.56 0 41.792-32.512 85.056-71.68 95.936-66.496 18.048-120.64-33.024-120.64-113.984 0-56.192 27.84-98.496 79.424-121.664l18.56-8.256-2.048-44.352c-2.56-40.192-1.536-45.888 8.768-59.328 25.28-31.424 66.496-42.816 101.568-27.84 21.12 8.768 42.816 30.4 42.816 42.304 0 11.84-13.952 28.864-23.744 28.864-3.584 0-16-4.608-27.328-10.816-25.28-12.864-36.608-11.328-46.4 6.208-6.208 11.328-6.72 17.536-1.536 34.56 5.696 19.072 8.256 21.12 30.912 26.816 58.24 13.952 97.472 48.96 120.64 107.776 14.912 38.08 16.512 119.04 2.56 157.696"/><path fill="#bfbfbf" d="M503.168 472.128c-16.512 10.304-33.024 42.304-33.024 65.472 0 19.584 13.44 46.912 25.792 53.632 22.656 12.352 56.704-8.768 56.704-35.072 0-7.744-4.096-32-8.768-54.144-10.304-43.84-13.888-46.4-40.704-29.888"/></svg>
